<?xml version="1.0" encoding="iso-8859-1"?>
<!-- Generator: Adobe Illustrator 18.1.1, SVG Export Plug-In . SVG Version: 6.00 Build 0)  -->
<svg version="1.1" id="Capa_1" xmlns="http://www.w3.org/2000/svg" xmlns:xlink="http://www.w3.org/1999/xlink" x="0px" y="0px"
	 viewBox="0 0 612 612" style="enable-background:new 0 0 612 612;" xml:space="preserve">
<g>
	<g>
		<path d="M604.211,124.466c-31.124-31.233-62.924-62.798-93.681-93.323L484.324,5.124C481.021,1.842,476.552,0,471.895,0H20.283
			C10.542,0,2.646,7.896,2.646,17.637v576.726c0,9.741,7.896,17.637,17.637,17.637h99.314V394.665
			c0-9.743,7.896-17.637,17.639-17.637h337.53c9.741,0,17.635,7.894,17.635,17.637V612h99.316c9.741,0,17.637-7.896,17.637-17.637
			V136.916C609.354,132.25,607.506,127.773,604.211,124.466z M166.192,258.878h-66.138V80.745h66.138V258.878z"/>
		<g>
			<path d="M428.576,480.22H183.422c-11.689,0-21.164-9.476-21.164-21.166c0-11.69,9.476-21.164,21.164-21.164h245.154
				c11.687,0,21.164,9.476,21.164,21.164C449.74,470.743,440.263,480.22,428.576,480.22z"/>
		</g>
		<g>
			<path d="M428.576,563.997H183.422c-11.689,0-21.164-9.476-21.164-21.164s9.476-21.164,21.164-21.164h245.154
				c11.687,0,21.164,9.476,21.164,21.164C449.74,554.521,440.263,563.997,428.576,563.997z"/>
		</g>
	</g>
</g>
<g>
</g>
<g>
</g>
<g>
</g>
<g>
</g>
<g>
</g>
<g>
</g>
<g>
</g>
<g>
</g>
<g>
</g>
<g>
</g>
<g>
</g>
<g>
</g>
<g>
</g>
<g>
</g>
<g>
</g>
</svg>
